<?xml version="1.0" encoding="UTF-8" standalone="no"?>
<!-- Created with Inkscape (http://www.inkscape.org/) -->

<svg
   xmlns:dc="http://purl.org/dc/elements/1.1/"
   xmlns:cc="http://creativecommons.org/ns#"
   xmlns:rdf="http://www.w3.org/1999/02/22-rdf-syntax-ns#"
   xmlns:svg="http://www.w3.org/2000/svg"
   xmlns="http://www.w3.org/2000/svg"
   xmlns:sodipodi="http://sodipodi.sourceforge.net/DTD/sodipodi-0.dtd"
   xmlns:inkscape="http://www.inkscape.org/namespaces/inkscape"
   width="5in"
   height="5in"
   viewBox="0 0 127 127"
   version="1.1"
   id="svg4980"
   inkscape:version="0.92.5 (2060ec1f9f, 2020-04-08)"
   sodipodi:docname="contrast.svg">
  <defs
     id="defs4974" />
  <sodipodi:namedview
     id="base"
     pagecolor="#ffffff"
     bordercolor="#666666"
     borderopacity="1.0"
     inkscape:pageopacity="0.0"
     inkscape:pageshadow="2"
     inkscape:zoom="0.35"
     inkscape:cx="400"
     inkscape:cy="560"
     inkscape:document-units="mm"
     inkscape:current-layer="layer1"
     showgrid="false"
     inkscape:window-width="1920"
     inkscape:window-height="979"
     inkscape:window-x="0"
     inkscape:window-y="36"
     inkscape:window-maximized="1"
     units="in"
     width="5in" />
  <metadata
     id="metadata4977">
    <rdf:RDF>
      <cc:Work
         rdf:about="">
        <dc:format>image/svg+xml</dc:format>
        <dc:type
           rdf:resource="http://purl.org/dc/dcmitype/StillImage" />
        <dc:title></dc:title>
      </cc:Work>
    </rdf:RDF>
  </metadata>
  <g
     inkscape:label="Camada 1"
     inkscape:groupmode="layer"
     id="layer1"
     transform="translate(0,-170)">
    <g
       id="g4961"
       transform="translate(-38.195859,113.53618)">
      <path
         id="path3741"
         transform="scale(0.26458333)"
         d="M 384.36328,263.89062 A 193.44421,186.37314 0 0 0 190.91797,450.26367 193.44421,186.37314 0 0 0 384.36328,636.63672 193.44421,186.37314 0 0 0 577.80664,450.26367 193.44421,186.37314 0 0 0 384.36328,263.89062 Z"
         style="fill:#000000;fill-opacity:0.01777781;stroke:#000000;stroke-width:45.35433197;stroke-miterlimit:4;stroke-dasharray:none;stroke-opacity:1"
         inkscape:connector-curvature="0" />
      <path
         id="path4932"
         transform="scale(0.26458333)"
         d="m 362.14062,285.10352 a 167.18025,166.17009 0 0 0 -167.18164,166.16992 167.18025,166.17009 0 0 0 167.18164,166.16992 167.18025,166.17009 0 0 0 1.51563,-0.0527 V 285.17969 a 167.18025,166.17009 0 0 0 -1.51563,-0.0762 z"
         style="fill:#000000;fill-opacity:1;stroke:#000000;stroke-width:45.35433197;stroke-miterlimit:4;stroke-dasharray:none;stroke-opacity:1"
         inkscape:connector-curvature="0" />
    </g>
  </g>
</svg>
